<svg width="20" height="20" viewBox="0 0 5.292 5.292" xmlns="http://www.w3.org/2000/svg"><path style="fill:none;stroke:#000;stroke-opacity:1" d="M2.783 2.447a.222.222 0 0 0-.199.221v3.264c0 .122.098.22.22.22h14.391a.22.22 0 0 0 .221-.22V2.668a.22.22 0 0 0-.22-.22H2.782zm.022 3.897c-.123 0-.221.1-.221.222V9.83c0 .123.098.22.22.22h14.391a.22.22 0 0 0 .221-.22V6.566a.222.222 0 0 0-.22-.222H2.804zm1.5 3.724a.174.174 0 0 0-.174.176v3.703c0 .097.077.176.174.176h11.39a.174.174 0 0 0 .174-.176v-3.703a.174.174 0 0 0-.174-.176H4.305zm-1.5 4.073a.22.22 0 0 0-.221.22v3.266c0 .122.098.22.22.22h14.391a.22.22 0 0 0 .221-.22v-3.266a.22.22 0 0 0-.22-.22H2.804z" transform="scale(.26458)"/></svg>